<svg width="28" height="29" viewBox="0 0 28 29" fill="none" xmlns="http://www.w3.org/2000/svg">
<path d="M19.8917 24.547C18.7484 25.6553 17.5 25.4803 16.2984 24.9553C15.0267 24.4186 13.86 24.3953 12.5184 24.9553C10.8384 25.6786 9.9517 25.4686 8.94836 24.547C3.25503 18.6786 4.09503 9.74196 10.5584 9.4153C12.1334 9.49696 13.23 10.2786 14.1517 10.3486C15.5284 10.0686 16.8467 9.26363 18.3167 9.36863C20.0784 9.50863 21.4084 10.2086 22.2834 11.4686C18.6434 13.6503 19.5067 18.4453 22.8434 19.787C22.1784 21.537 21.315 23.2753 19.88 24.5586L19.8917 24.547ZM14.035 9.3453C13.86 6.74363 15.9717 4.59696 18.3984 4.38696C18.7367 7.39696 15.6684 9.63696 14.035 9.3453Z" fill="#121212"/>
</svg>
