<svg width="48" height="49" viewBox="0 0 48 49" fill="none" xmlns="http://www.w3.org/2000/svg">
<path d="M24 0.371216L40.9706 7.40065L48 24.3712L40.9706 41.3418L24 48.3712L7.02944 41.3418L0 24.3712L7.02944 7.40065L24 0.371216Z" fill="#1A2837"/>
<path d="M26 14.3712H18C17.4696 14.3712 16.9609 14.5819 16.5858 14.957C16.2107 15.3321 16 15.8408 16 16.3712V32.3712C16 32.9016 16.2107 33.4104 16.5858 33.7854C16.9609 34.1605 17.4696 34.3712 18 34.3712H30C30.5304 34.3712 31.0391 34.1605 31.4142 33.7854C31.7893 33.4104 32 32.9016 32 32.3712V20.3712L26 14.3712Z" stroke="#E8C95E" stroke-width="2" stroke-linecap="round" stroke-linejoin="round"/>
<path d="M26 14.3712V20.3712H32" stroke="#E8C95E" stroke-width="2" stroke-linecap="round" stroke-linejoin="round"/>
<path d="M28 25.3712H20" stroke="#E8C95E" stroke-width="2" stroke-linecap="round" stroke-linejoin="round"/>
<path d="M28 29.3712H20" stroke="#E8C95E" stroke-width="2" stroke-linecap="round" stroke-linejoin="round"/>
<path d="M22 21.3712H21H20" stroke="#E8C95E" stroke-width="2" stroke-linecap="round" stroke-linejoin="round"/>
</svg>
