<svg width="48" height="48" viewBox="0 0 48 48" fill="none" xmlns="http://www.w3.org/2000/svg">
<path d="M24 0L40.9706 7.02944L48 24L40.9706 40.9706L24 48L7.02944 40.9706L0 24L7.02944 7.02944L24 0Z" fill="#1A2837"/>
<path d="M34.4142 16.5858C34.0391 16.2107 33.5304 16 33 16H15C14.4696 16 13.9609 16.2107 13.5858 16.5858C13.2107 16.9609 13 17.4696 13 18V30C13 30.5304 13.2107 31.0391 13.5858 31.4142C13.9609 31.7893 14.4696 32 15 32H33C33.5304 32 34.0391 31.7893 34.4142 31.4142C34.7893 31.0391 35 30.5304 35 30V18C35 17.4696 34.7893 16.9609 34.4142 16.5858ZM13.2322 16.2322C13.7011 15.7634 14.337 15.5 15 15.5H33C33.663 15.5 34.2989 15.7634 34.7678 16.2322C35.2366 16.7011 35.5 17.337 35.5 18V30C35.5 30.663 35.2366 31.2989 34.7678 31.7678C34.2989 32.2366 33.663 32.5 33 32.5H15C14.337 32.5 13.7011 32.2366 13.2322 31.7678C12.7634 31.2989 12.5 30.663 12.5 30V18C12.5 17.337 12.7634 16.7011 13.2322 16.2322Z" fill="black" stroke="#E8C95E"/>
<path d="M15.5 20.25C15.5 20.1837 15.5263 20.1201 15.5732 20.0732C15.6201 20.0263 15.6837 20 15.75 20H18.75C18.8163 20 18.8799 20.0263 18.9268 20.0732L19.2803 19.7197L18.9268 20.0732C18.9737 20.1201 19 20.1837 19 20.25V21.75C19 21.8163 18.9737 21.8799 18.9268 21.9268L19.2803 22.2803L18.9268 21.9268C18.8799 21.9737 18.8163 22 18.75 22H15.75C15.6837 22 15.6201 21.9737 15.5732 21.9268C15.5263 21.8799 15.5 21.8163 15.5 21.75V20.25ZM15.5 24.75C15.5 24.6837 15.5263 24.6201 15.5732 24.5732C15.6201 24.5263 15.6837 24.5 15.75 24.5H23.25C23.3163 24.5 23.3799 24.5263 23.4268 24.5732C23.4737 24.6201 23.5 24.6837 23.5 24.75C23.5 24.8163 23.4737 24.8799 23.4268 24.9268C23.3799 24.9737 23.3163 25 23.25 25H15.75C15.6837 25 15.6201 24.9737 15.5732 24.9268C15.5263 24.8799 15.5 24.8163 15.5 24.75ZM15.5 27.75C15.5 27.6837 15.5263 27.6201 15.5732 27.5732C15.6201 27.5263 15.6837 27.5 15.75 27.5H17.25C17.3163 27.5 17.3799 27.5263 17.4268 27.5732C17.4737 27.6201 17.5 27.6837 17.5 27.75C17.5 27.8163 17.4737 27.8799 17.4268 27.9268C17.3799 27.9737 17.3163 28 17.25 28H15.75C15.6837 28 15.6201 27.9737 15.5732 27.9268C15.5263 27.8799 15.5 27.8163 15.5 27.75ZM20 27.75C20 27.6837 20.0263 27.6201 20.0732 27.5732C20.1201 27.5263 20.1837 27.5 20.25 27.5H21.75C21.8163 27.5 21.8799 27.5263 21.9268 27.5732C21.9737 27.6201 22 27.6837 22 27.75C22 27.8163 21.9737 27.8799 21.9268 27.9268C21.8799 27.9737 21.8163 28 21.75 28H20.25C20.1837 28 20.1201 27.9737 20.0732 27.9268C20.0263 27.8799 20 27.8163 20 27.75ZM24.5 27.75C24.5 27.6837 24.5263 27.6201 24.5732 27.5732C24.6201 27.5263 24.6837 27.5 24.75 27.5H26.25C26.3163 27.5 26.3799 27.5263 26.4268 27.5732C26.4737 27.6201 26.5 27.6837 26.5 27.75C26.5 27.8163 26.4737 27.8799 26.4268 27.9268C26.3799 27.9737 26.3163 28 26.25 28H24.75C24.6837 28 24.6201 27.9737 24.5732 27.9268C24.5263 27.8799 24.5 27.8163 24.5 27.75ZM29 27.75C29 27.6837 29.0263 27.6201 29.0732 27.5732C29.1201 27.5263 29.1837 27.5 29.25 27.5H30.75C30.8163 27.5 30.8799 27.5263 30.9268 27.5732C30.9737 27.6201 31 27.6837 31 27.75C31 27.8163 30.9737 27.8799 30.9268 27.9268C30.8799 27.9737 30.8163 28 30.75 28H29.25C29.1837 28 29.1201 27.9737 29.0732 27.9268C29.0263 27.8799 29 27.8163 29 27.75Z" fill="black" stroke="#E8C95E"/>
</svg>
