<svg width="48" height="48" viewBox="0 0 48 48" fill="none" xmlns="http://www.w3.org/2000/svg">
<path d="M24 0L40.9706 7.02944L48 24L40.9706 40.9706L24 48L7.02944 40.9706L0 24L7.02944 7.02944L24 0Z" fill="#1A2837"/>
<path d="M12.5457 30.788L12.2007 31.133L12.5457 30.788C11.9831 30.2254 11.667 29.4624 11.667 28.6667V19.3334C11.667 18.5377 11.9831 17.7747 12.5457 17.2121C13.1083 16.6494 13.8713 16.3334 14.667 16.3334H33.3337C34.1293 16.3334 34.8924 16.6494 35.455 17.2121C36.0176 17.7747 36.3337 18.5377 36.3337 19.3334V28.6667C36.3337 29.4624 36.0176 30.2254 35.455 30.788C34.8924 31.3506 34.1293 31.6667 33.3337 31.6667H14.667C13.8713 31.6667 13.1083 31.3506 12.5457 30.788ZM13.4885 29.8452L13.842 29.4917L13.4885 29.8452C13.801 30.1578 14.225 30.3334 14.667 30.3334H33.3337C33.7757 30.3334 34.1996 30.1578 34.5122 29.8452C34.8247 29.5327 35.0003 29.1087 35.0003 28.6667V19.3334C35.0003 18.8913 34.8247 18.4674 34.5122 18.1549C34.1996 17.8423 33.7757 17.6667 33.3337 17.6667H14.667C14.225 17.6667 13.801 17.8423 13.4885 18.1549C13.1759 18.4674 13.0003 18.8913 13.0003 19.3334V28.6667C13.0003 29.1087 13.1759 29.5327 13.4885 29.8452ZM30.3844 23.7449L29.9225 23.5536L30.3844 23.7449C30.4349 23.6231 30.5203 23.519 30.6299 23.4457C30.7396 23.3725 30.8685 23.3334 31.0003 23.3334C31.1771 23.3334 31.3467 23.4036 31.4717 23.5286C31.5968 23.6537 31.667 23.8232 31.667 24C31.667 24.1319 31.6279 24.2608 31.5546 24.3704C31.4814 24.4801 31.3773 24.5655 31.2554 24.616C31.1336 24.6664 30.9996 24.6796 30.8703 24.6539C30.7409 24.6282 30.6222 24.5647 30.5289 24.4714C30.4357 24.3782 30.3722 24.2594 30.3465 24.1301C30.3207 24.0008 30.334 23.8667 30.3844 23.7449ZM16.6299 23.4457C16.7396 23.3725 16.8685 23.3334 17.0003 23.3334C17.1771 23.3334 17.3467 23.4036 17.4717 23.5286C17.5968 23.6537 17.667 23.8232 17.667 24C17.667 24.1319 17.6279 24.2608 17.5546 24.3704C17.4814 24.4801 17.3773 24.5655 17.2554 24.616C17.1336 24.6664 16.9996 24.6796 16.8703 24.6539C16.7409 24.6282 16.6222 24.5647 16.5289 24.4714C16.4357 24.3782 16.3722 24.2594 16.3465 24.1301C16.3207 24.0008 16.3339 23.8667 16.3844 23.7449C16.4349 23.6231 16.5203 23.519 16.6299 23.4457ZM22.3336 21.5056C22.827 21.176 23.407 21 24.0003 21C24.796 21 25.559 21.3161 26.1216 21.8787C26.6843 22.4413 27.0003 23.2044 27.0003 24C27.0003 24.5934 26.8244 25.1734 26.4947 25.6668C26.1651 26.1601 25.6966 26.5446 25.1484 26.7717C24.6002 26.9987 23.997 27.0582 23.4151 26.9424C22.8331 26.8266 22.2986 26.5409 21.879 26.1214C21.4594 25.7018 21.1737 25.1673 21.058 24.5853C20.9422 24.0034 21.0016 23.4002 21.2287 22.852C21.4558 22.3038 21.8403 21.8353 22.3336 21.5056ZM23.0744 25.3858C23.3485 25.569 23.6707 25.6667 24.0003 25.6667C24.4424 25.6667 24.8663 25.4911 25.1788 25.1786C25.4914 24.866 25.667 24.4421 25.667 24C25.667 23.6704 25.5692 23.3482 25.3861 23.0741C25.203 22.8 24.9427 22.5864 24.6381 22.4602C24.3336 22.3341 23.9985 22.3011 23.6752 22.3654C23.3519 22.4297 23.0549 22.5884 22.8218 22.8215C22.5887 23.0546 22.43 23.3516 22.3657 23.6749C22.3014 23.9982 22.3344 24.3333 22.4605 24.6378C22.5867 24.9424 22.8003 25.2027 23.0744 25.3858Z" fill="black" stroke="#E8C95E"/>
</svg>
