<svg width="56" height="57" viewBox="0 0 56 57" fill="none" xmlns="http://www.w3.org/2000/svg">
<path d="M28 0.886963L47.799 9.08797L56 28.887L47.799 48.686L28 56.887L8.20101 48.686L0 28.887L8.20101 9.08797L28 0.886963Z" fill="#1A2837"/>
<path d="M34.6667 30.2203C34.6667 30.7507 34.456 31.2594 34.0809 31.6345C33.7058 32.0096 33.1971 32.2203 32.6667 32.2203C32.1362 32.2203 31.6275 32.0096 31.2525 31.6345C30.8774 31.2594 30.6667 30.7507 30.6667 30.2203C30.6667 29.6898 30.8774 29.1811 31.2525 28.8061C31.6275 28.431 32.1362 28.2203 32.6667 28.2203C33.1971 28.2203 33.7058 28.431 34.0809 28.8061C34.456 29.1811 34.6667 29.6898 34.6667 30.2203Z" fill="#FFD43F"/>
<path fill-rule="evenodd" clip-rule="evenodd" d="M18.4173 20.5243L33.084 16.3337C33.5801 16.1919 34.1024 16.1672 34.6097 16.2616C35.117 16.3559 35.5954 16.5668 36.0073 16.8775C36.4193 17.1882 36.7535 17.5904 36.9835 18.0522C37.2136 18.514 37.3334 19.023 37.3333 19.539V20.887C38.0406 20.887 38.7189 21.1679 39.219 21.668C39.719 22.1681 40 22.8464 40 23.5537V36.887C40 37.5942 39.719 38.2725 39.219 38.7726C38.7189 39.2727 38.0406 39.5536 37.3333 39.5536H18.6667C17.9594 39.5536 17.2811 39.2727 16.781 38.7726C16.281 38.2725 16 37.5942 16 36.887V23.5537C16 22.1603 17.1133 20.8963 18.4173 20.5243ZM33.8173 18.8977C33.9164 18.8694 34.0207 18.8645 34.122 18.8834C34.2234 18.9023 34.3189 18.9444 34.4012 19.0064C34.4835 19.0684 34.5503 19.1486 34.5964 19.2408C34.6424 19.333 34.6665 19.4346 34.6667 19.5377V20.887H26.8533L33.8173 18.8977ZM18.6667 23.5537H37.3333V36.887H18.6667V23.5537Z" fill="#FFD43F"/>
</svg>
