<svg width="24" height="25" viewBox="0 0 24 25" fill="none" xmlns="http://www.w3.org/2000/svg">
<path d="M20.0025 3.88696H3.9975C3.73355 3.88893 3.48097 3.99465 3.29433 4.18129C3.10769 4.36794 3.00196 4.62052 3 4.88446V20.8895C3.00196 21.1534 3.10769 21.406 3.29433 21.5926C3.48097 21.7793 3.73355 21.885 3.9975 21.887H12.615V14.927H10.275V12.2045H12.615V10.202C12.615 7.87696 14.0325 6.60946 16.1175 6.60946C16.815 6.60946 17.5125 6.60946 18.21 6.71446V9.13696H16.7775C15.645 9.13696 15.4275 9.67696 15.4275 10.4645V12.197H18.1275L17.775 14.9195H15.4275V21.887H20.0025C20.2664 21.885 20.519 21.7793 20.7057 21.5926C20.8923 21.406 20.998 21.1534 21 20.8895V4.88446C20.998 4.62052 20.8923 4.36794 20.7057 4.18129C20.519 3.99465 20.2664 3.88893 20.0025 3.88696Z" fill="#E8C95E"/>
</svg>
