<svg width="28" height="29" viewBox="0 0 28 29" fill="none" xmlns="http://www.w3.org/2000/svg">
<path d="M4.28167 8.05033C4.28167 8.05033 2.12333 10.1153 2.00667 12.297V12.7053C2.1 14.467 3.43 15.5053 3.43 15.5053C5.565 17.5937 10.7333 20.2187 11.9467 20.8137C11.9467 20.8137 12.0167 20.8487 12.0633 20.802L12.0867 20.7553V20.7087C8.77333 13.487 4.28167 8.05033 4.28167 8.05033ZM11.2583 22.587C11.235 22.4937 11.1417 22.4937 11.1417 22.4937L2.53167 22.797C3.465 24.4653 5.04 25.7487 6.685 25.3637C7.805 25.072 10.3717 23.287 11.2117 22.6803C11.2817 22.622 11.2583 22.5753 11.2583 22.5753V22.587ZM11.3517 21.677C7.57167 19.122 0.245 15.2137 0.245 15.2137C0.07 15.7503 0.0116667 16.2637 0 16.7303V16.812C0 18.0603 0.466667 18.9353 0.466667 18.9353C1.4 20.907 3.19667 21.502 3.19667 21.502C4.01333 21.852 4.83 21.8637 4.83 21.8637C4.97 21.887 9.96333 21.8637 11.2933 21.8637C11.3517 21.8637 11.3867 21.8053 11.3867 21.8053V21.7353C11.3867 21.7003 11.3517 21.677 11.3517 21.677ZM10.57 4.60867C9.74282 4.81987 9.0052 5.29081 8.46551 5.9523C7.92582 6.61378 7.61253 7.43093 7.57167 8.28367V8.762C7.60667 9.462 7.75833 9.987 7.75833 9.987C8.52833 13.3703 12.2617 18.912 13.0667 20.0787C13.125 20.137 13.1833 20.1137 13.1833 20.1137C13.2057 20.104 13.2245 20.0875 13.2371 20.0666C13.2497 20.0457 13.2553 20.0213 13.2533 19.997C14.49 7.63033 11.9583 4.34033 11.9583 4.34033C11.585 4.36367 10.57 4.60867 10.57 4.60867ZM20.2522 7.257C20.2522 7.257 19.6805 5.157 17.4055 4.597C17.4055 4.597 16.7405 4.43367 16.0405 4.34033C16.0405 4.34033 13.4972 7.61866 14.7338 20.0087C14.7455 20.0903 14.8038 20.102 14.8038 20.102C14.8855 20.137 14.9205 20.067 14.9205 20.067C15.7605 18.8653 19.4705 13.347 20.2288 9.987C20.2288 9.987 20.6488 8.35367 20.2522 7.257ZM16.8455 22.5053C16.8455 22.5053 16.7638 22.5053 16.7405 22.5637C16.7405 22.5637 16.7288 22.6453 16.7755 22.6803C17.5922 23.2753 20.1005 25.0137 21.3022 25.3637C21.3022 25.3637 21.4888 25.422 21.8038 25.4337H21.9672C22.7722 25.4103 24.1838 25.002 25.4672 22.797L16.8338 22.5053H16.8455ZM25.9805 12.6937C26.1438 10.2903 23.7172 8.062 23.7172 8.05033C23.7172 8.05033 19.2255 13.487 15.9355 20.6503C15.9355 20.6503 15.9005 20.7437 15.9588 20.802L16.0055 20.8137H16.0755C17.3122 20.1953 22.4455 17.582 24.5688 15.517C24.5688 15.517 25.9105 14.432 25.9805 12.6937ZM27.7538 15.1903C27.7538 15.1903 20.4272 19.122 16.6472 21.6653C16.6472 21.6653 16.5888 21.712 16.6122 21.7937C16.6122 21.7937 16.6472 21.8637 16.6938 21.8637C18.0472 21.8637 23.1805 21.8637 23.3088 21.8403C23.3088 21.8403 23.9738 21.817 24.7905 21.502C24.7905 21.502 26.6105 20.9187 27.5555 18.8537C27.5555 18.8537 28.4072 17.162 27.7538 15.1903Z" fill="#121212"/>
</svg>
