<svg width="24" height="25" viewBox="0 0 24 25" fill="none" xmlns="http://www.w3.org/2000/svg">
<path d="M16.5 3.13696H7.5C6.10807 3.13845 4.77358 3.69205 3.78933 4.6763C2.80509 5.66054 2.25149 6.99503 2.25 8.38696V17.387C2.25149 18.7789 2.80509 20.1134 3.78933 21.0976C4.77358 22.0819 6.10807 22.6355 7.5 22.637H16.5C17.8919 22.6355 19.2264 22.0819 20.2107 21.0976C21.1949 20.1134 21.7485 18.7789 21.75 17.387V8.38696C21.7485 6.99503 21.1949 5.66054 20.2107 4.6763C19.2264 3.69205 17.8919 3.13845 16.5 3.13696ZM12 17.387C11.11 17.387 10.24 17.123 9.49993 16.6286C8.75991 16.1341 8.18314 15.4313 7.84254 14.609C7.50195 13.7868 7.41283 12.882 7.58647 12.0091C7.7601 11.1361 8.18868 10.3343 8.81802 9.70498C9.44736 9.07565 10.2492 8.64706 11.1221 8.47343C11.995 8.2998 12.8998 8.38891 13.7221 8.72951C14.5443 9.0701 15.2471 9.64688 15.7416 10.3869C16.2361 11.1269 16.5 11.9969 16.5 12.887C16.4988 14.0801 16.0243 15.2239 15.1806 16.0676C14.337 16.9112 13.1931 17.3857 12 17.387ZM17.625 8.38696C17.4025 8.38696 17.185 8.32098 17 8.19737C16.815 8.07375 16.6708 7.89805 16.5856 7.69248C16.5005 7.48691 16.4782 7.26071 16.5216 7.04249C16.565 6.82426 16.6722 6.6238 16.8295 6.46647C16.9868 6.30913 17.1873 6.20199 17.4055 6.15858C17.6238 6.11517 17.85 6.13745 18.0555 6.2226C18.2611 6.30775 18.4368 6.45194 18.5604 6.63695C18.684 6.82195 18.75 7.03946 18.75 7.26196C18.75 7.56033 18.6315 7.84648 18.4205 8.05746C18.2095 8.26844 17.9234 8.38696 17.625 8.38696ZM15 12.887C15 13.4803 14.8241 14.0603 14.4944 14.5537C14.1648 15.047 13.6962 15.4315 13.148 15.6586C12.5999 15.8857 11.9967 15.9451 11.4147 15.8293C10.8328 15.7136 10.2982 15.4278 9.87868 15.0083C9.45912 14.5887 9.1734 14.0542 9.05764 13.4722C8.94189 12.8903 9.0013 12.2871 9.22836 11.7389C9.45542 11.1907 9.83994 10.7222 10.3333 10.3926C10.8266 10.0629 11.4067 9.88696 12 9.88696C12.7956 9.88696 13.5587 10.203 14.1213 10.7656C14.6839 11.3283 15 12.0913 15 12.887Z" fill="#E8C95E"/>
</svg>
