<svg width="21" height="20" viewBox="0 0 21 20" fill="none" xmlns="http://www.w3.org/2000/svg">
<path d="M16.1654 9.16667H4.4987C3.57822 9.16667 2.83203 9.91286 2.83203 10.8333V16.6667C2.83203 17.5871 3.57822 18.3333 4.4987 18.3333H16.1654C17.0858 18.3333 17.832 17.5871 17.832 16.6667V10.8333C17.832 9.91286 17.0858 9.16667 16.1654 9.16667Z" stroke="#E8C95E" stroke-width="1.5" stroke-linecap="round" stroke-linejoin="round"/>
<path d="M6.16406 9.16667V5.83334C6.16406 4.72827 6.60305 3.66846 7.38445 2.88706C8.16585 2.10566 9.22566 1.66667 10.3307 1.66667C11.4358 1.66667 12.4956 2.10566 13.277 2.88706C14.0584 3.66846 14.4974 4.72827 14.4974 5.83334V9.16667" stroke="#E8C95E" stroke-width="1.5" stroke-linecap="round" stroke-linejoin="round"/>
</svg>
