<svg width="25" height="24" viewBox="0 0 25 24" fill="none" xmlns="http://www.w3.org/2000/svg">
<path d="M4.42578 18H20.4258C20.9758 18 21.4258 17.55 21.4258 17C21.4258 16.45 20.9758 16 20.4258 16H4.42578C3.87578 16 3.42578 16.45 3.42578 17C3.42578 17.55 3.87578 18 4.42578 18ZM4.42578 13H20.4258C20.9758 13 21.4258 12.55 21.4258 12C21.4258 11.45 20.9758 11 20.4258 11H4.42578C3.87578 11 3.42578 11.45 3.42578 12C3.42578 12.55 3.87578 13 4.42578 13ZM3.42578 7C3.42578 7.55 3.87578 8 4.42578 8H20.4258C20.9758 8 21.4258 7.55 21.4258 7C21.4258 6.45 20.9758 6 20.4258 6H4.42578C3.87578 6 3.42578 6.45 3.42578 7Z" fill="black"/>
</svg>
