<svg width="20" height="20" viewBox="0 0 20 20" fill="none" xmlns="http://www.w3.org/2000/svg">
<path d="M4.9987 9.16666C4.83388 9.16666 4.67276 9.21553 4.53572 9.3071C4.39868 9.39867 4.29187 9.52881 4.2288 9.68109C4.16572 9.83336 4.14922 10.0009 4.18138 10.1626C4.21353 10.3242 4.2929 10.4727 4.40944 10.5892C4.52599 10.7058 4.67447 10.7852 4.83612 10.8173C4.99777 10.8495 5.16533 10.833 5.3176 10.7699C5.46987 10.7068 5.60002 10.6 5.69159 10.463C5.78316 10.3259 5.83203 10.1648 5.83203 9.99999C5.83203 9.77898 5.74423 9.56701 5.58795 9.41073C5.43167 9.25445 5.21971 9.16666 4.9987 9.16666ZM14.9987 9.16666C14.8339 9.16666 14.6728 9.21553 14.5357 9.3071C14.3987 9.39867 14.2919 9.52881 14.2288 9.68109C14.1657 9.83336 14.1492 10.0009 14.1814 10.1626C14.2135 10.3242 14.2929 10.4727 14.4094 10.5892C14.526 10.7058 14.6745 10.7852 14.8361 10.8173C14.9978 10.8495 15.1653 10.833 15.3176 10.7699C15.4699 10.7068 15.6 10.6 15.6916 10.463C15.7832 10.3259 15.832 10.1648 15.832 9.99999C15.832 9.77898 15.7442 9.56701 15.588 9.41073C15.4317 9.25445 15.2197 9.16666 14.9987 9.16666ZM16.6654 4.16666H3.33203C2.66899 4.16666 2.03311 4.43005 1.56426 4.89889C1.09542 5.36773 0.832031 6.00362 0.832031 6.66666V13.3333C0.832031 13.9964 1.09542 14.6322 1.56426 15.1011C2.03311 15.5699 2.66899 15.8333 3.33203 15.8333H16.6654C17.3284 15.8333 17.9643 15.5699 18.4331 15.1011C18.902 14.6322 19.1654 13.9964 19.1654 13.3333V6.66666C19.1654 6.00362 18.902 5.36773 18.4331 4.89889C17.9643 4.43005 17.3284 4.16666 16.6654 4.16666ZM17.4987 13.3333C17.4987 13.5543 17.4109 13.7663 17.2546 13.9226C17.0983 14.0789 16.8864 14.1667 16.6654 14.1667H3.33203C3.11102 14.1667 2.89906 14.0789 2.74278 13.9226C2.5865 13.7663 2.4987 13.5543 2.4987 13.3333V6.66666C2.4987 6.44564 2.5865 6.23368 2.74278 6.0774C2.89906 5.92112 3.11102 5.83332 3.33203 5.83332H16.6654C16.8864 5.83332 17.0983 5.92112 17.2546 6.0774C17.4109 6.23368 17.4987 6.44564 17.4987 6.66666V13.3333ZM9.9987 7.49999C9.50424 7.49999 9.02089 7.64661 8.60977 7.92132C8.19865 8.19602 7.87822 8.58647 7.689 9.04328C7.49978 9.5001 7.45027 10.0028 7.54673 10.4877C7.6432 10.9727 7.8813 11.4181 8.23093 11.7678C8.58056 12.1174 9.02602 12.3555 9.51097 12.452C9.99592 12.5484 10.4986 12.4989 10.9554 12.3097C11.4122 12.1205 11.8027 11.8 12.0774 11.3889C12.3521 10.9778 12.4987 10.4944 12.4987 9.99999C12.4987 9.33695 12.2353 8.70106 11.7665 8.23222C11.2976 7.76338 10.6617 7.49999 9.9987 7.49999ZM9.9987 10.8333C9.83388 10.8333 9.67276 10.7844 9.53572 10.6929C9.39868 10.6013 9.29187 10.4712 9.2288 10.3189C9.16572 10.1666 9.14922 9.99907 9.18138 9.83741C9.21353 9.67576 9.2929 9.52728 9.40944 9.41073C9.52599 9.29419 9.67447 9.21482 9.83612 9.18267C9.99777 9.15051 10.1653 9.16702 10.3176 9.23009C10.4699 9.29316 10.6 9.39997 10.6916 9.53701C10.7832 9.67406 10.832 9.83517 10.832 9.99999C10.832 10.221 10.7442 10.433 10.588 10.5892C10.4317 10.7455 10.2197 10.8333 9.9987 10.8333Z" fill="#E8C95E"/>
</svg>
