<svg width="48" height="48" viewBox="0 0 48 48" fill="none" xmlns="http://www.w3.org/2000/svg">
<path d="M24 0L40.9706 7.02944L48 24L40.9706 40.9706L24 48L7.02944 40.9706L0 24L7.02944 7.02944L24 0Z" fill="#1A2837"/>
<path d="M17 24.55C18.9766 22.9037 21.4676 22.0021 24.04 22.0021C26.6124 22.0021 29.1034 22.9037 31.08 24.55" stroke="#E8C95E" stroke-width="2" stroke-linecap="round" stroke-linejoin="round"/>
<path d="M13.4199 21C16.3423 18.4239 20.1042 17.0026 23.9999 17.0026C27.8956 17.0026 31.6575 18.4239 34.5799 21" stroke="#E8C95E" stroke-width="2" stroke-linecap="round" stroke-linejoin="round"/>
<path d="M20.5303 28.11C21.5455 27.3888 22.7599 27.0013 24.0053 27.0013C25.2506 27.0013 26.4651 27.3888 27.4803 28.11" stroke="#E8C95E" stroke-width="2" stroke-linecap="round" stroke-linejoin="round"/>
<path d="M24 32H24.01" stroke="#E8C95E" stroke-width="2" stroke-linecap="round" stroke-linejoin="round"/>
</svg>
