<svg width="24" height="25" viewBox="0 0 24 25" fill="none" xmlns="http://www.w3.org/2000/svg">
<path d="M21.9999 17.8069V20.8069C22.0011 21.0854 21.944 21.3611 21.8324 21.6163C21.7209 21.8715 21.5572 22.1005 21.352 22.2888C21.1468 22.4771 20.9045 22.6204 20.6407 22.7096C20.3769 22.7989 20.0973 22.832 19.8199 22.8069C16.7428 22.4726 13.7869 21.4211 11.1899 19.7369C8.77376 18.2016 6.72527 16.1531 5.18993 13.7369C3.49991 11.1281 2.44818 8.15793 2.11993 5.06694C2.09494 4.7904 2.12781 4.5117 2.21643 4.24856C2.30506 3.98543 2.4475 3.74363 2.6347 3.53856C2.82189 3.33349 3.04974 3.16965 3.30372 3.05746C3.55771 2.94527 3.83227 2.8872 4.10993 2.88694H7.10993C7.59524 2.88216 8.06572 3.05402 8.43369 3.37047C8.80166 3.68692 9.04201 4.12638 9.10993 4.60694C9.23656 5.567 9.47138 6.50966 9.80993 7.41694C9.94448 7.77486 9.9736 8.16385 9.89384 8.53782C9.81408 8.91178 9.6288 9.25505 9.35993 9.52694L8.08993 10.7969C9.51349 13.3005 11.5864 15.3734 14.0899 16.7969L15.3599 15.5269C15.6318 15.2581 15.9751 15.0728 16.3491 14.993C16.723 14.9133 17.112 14.9424 17.4699 15.0769C18.3772 15.4155 19.3199 15.6503 20.2799 15.7769C20.7657 15.8455 21.2093 16.0901 21.5265 16.4644C21.8436 16.8387 22.0121 17.3165 21.9999 17.8069Z" stroke="#E8C95E" stroke-width="2" stroke-linecap="round" stroke-linejoin="round"/>
</svg>
