<svg width="20" height="20" viewBox="0 0 20 20" fill="none" xmlns="http://www.w3.org/2000/svg">
<path d="M1.66536 14.1667H18.332V15.8333H1.66536V14.1667ZM2.6237 10.7917L3.33203 9.55834L4.04036 10.7917L5.1237 10.1667L4.41536 8.93334H5.83203V7.68334H4.41536L5.1237 6.45834L4.04036 5.83334L3.33203 7.05834L2.6237 5.83334L1.54036 6.45834L2.2487 7.68334H0.832031V8.93334H2.2487L1.54036 10.1667L2.6237 10.7917ZM8.20703 10.1667L9.29036 10.7917L9.9987 9.55834L10.707 10.7917L11.7904 10.1667L11.082 8.93334H12.4987V7.68334H11.082L11.7904 6.45834L10.707 5.83334L9.9987 7.05834L9.29036 5.83334L8.20703 6.45834L8.91536 7.68334H7.4987V8.93334H8.91536L8.20703 10.1667ZM19.1654 7.68334H17.7487L18.457 6.45834L17.3737 5.83334L16.6654 7.05834L15.957 5.83334L14.8737 6.45834L15.582 7.68334H14.1654V8.93334H15.582L14.8737 10.1667L15.957 10.7917L16.6654 9.55834L17.3737 10.7917L18.457 10.1667L17.7487 8.93334H19.1654V7.68334Z" fill="#E8C95E"/>
</svg>
