<svg width="48" height="48" viewBox="0 0 48 48" fill="none" xmlns="http://www.w3.org/2000/svg">
<path d="M24 0L40.9706 7.02944L48 24L40.9706 40.9706L24 48L7.02944 40.9706L0 24L7.02944 7.02944L24 0Z" fill="#1A2837"/>
<path d="M15.1328 20.9697L14.5334 19.933L14.9672 19.6827L15.5672 20.7203L16 21.4689L16.4328 20.7203L17.0328 19.6827L17.4666 19.933L16.8672 20.9697L16.4333 21.72H17.3H18.5V22.22H17.3H16.4362L16.8664 22.969L17.4679 24.0163L17.0341 24.2666L16.4336 23.221L16 22.466L15.5664 23.221L14.9659 24.2666L14.5321 24.0163L15.1336 22.969L15.5638 22.22H14.7H13.5V21.72H14.7H15.5667L15.1328 20.9697ZM22.7 22.22H21.5V21.72H22.7H23.5667L23.1328 20.9697L22.5334 19.933L22.9672 19.6827L23.5672 20.7203L24 21.4689L24.4328 20.7203L25.0328 19.6827L25.4666 19.933L24.8672 20.9697L24.4333 21.72H25.3H26.5V22.22H25.3H24.4362L24.8664 22.969L25.4679 24.0163L25.0341 24.2666L24.4336 23.221L24 22.466L23.5664 23.221L22.9659 24.2666L22.5321 24.0163L23.1336 22.969L23.5638 22.22H22.7ZM33.0341 24.2666L32.4336 23.221L32 22.466L31.5664 23.221L30.9659 24.2666L30.5321 24.0163L31.1336 22.969L31.5638 22.22H30.7H29.5V21.72H30.7H31.5667L31.1328 20.9697L30.5334 19.933L30.9672 19.6827L31.5672 20.7203L32 21.4689L32.4328 20.7203L33.0328 19.6827L33.4666 19.933L32.8672 20.9697L32.4333 21.72H33.3H34.5V22.22H33.3H32.4362L32.8664 22.969L33.4679 24.0163L33.0341 24.2666ZM33.5 29.5V30.5H14.5V29.5H33.5Z" fill="black" stroke="#E8C95E"/>
</svg>
