<svg width="28" height="29" viewBox="0 0 28 29" fill="none" xmlns="http://www.w3.org/2000/svg">
<path d="M15.1128 14.4389L18.5627 10.9891L7.41984 4.72641C6.68134 4.32741 5.9895 4.27141 5.38284 4.70774L15.1128 14.4389ZM19.1507 18.4779L22.737 16.4607C23.437 16.0687 23.8208 15.5134 23.8208 14.8974C23.8208 14.2826 23.437 13.7261 22.7382 13.3341L19.4913 11.5106L15.8362 15.1646L19.1507 18.4779ZM4.78317 5.55591C4.7085 5.78574 4.6665 6.04241 4.6665 6.32357V23.4794C4.6665 23.9239 4.7645 24.3066 4.94184 24.6111L14.3883 15.1634L4.78317 5.55591ZM15.1128 15.8867L5.71884 25.2819C5.8985 25.3507 6.09217 25.3869 6.29634 25.3869C6.66034 25.3869 7.0395 25.2796 7.42567 25.0649L18.2232 19.0017L15.1128 15.8867Z" fill="#121212"/>
</svg>
