<svg width="48" height="49" viewBox="0 0 48 49" fill="none" xmlns="http://www.w3.org/2000/svg">
<path d="M24 0.371216L40.9706 7.40065L48 24.3712L40.9706 41.3418L24 48.3712L7.02944 41.3418L0 24.3712L7.02944 7.40065L24 0.371216Z" fill="#1A2837"/>
<path d="M16.5 21.3712V21.8712H17H21H21.5V21.3712V17.3712V16.8712H21H17H16.5V17.3712V21.3712ZM16.5 31.3712V31.8712H17H21H21.5V31.3712V27.3712V26.8712H21H17H16.5V27.3712V31.3712ZM26.5 21.3712V21.8712H27H31H31.5V21.3712V17.3712V16.8712H31H27H26.5V17.3712V21.3712ZM31.5 27.8712H32.5V28.8712H31.5V27.8712ZM31.5 31.8712H32.5V32.8712H31.5V31.8712ZM27.5 27.8712H28.5V28.8712H27.5V27.8712ZM30.5 30.8712H29.5V29.8712H30.5V30.8712ZM28.5 31.8712V32.8712H27.5V31.8712H28.5ZM26.5 30.8712H25.5V29.8712H26.5V30.8712ZM30.5 26.8712H29.5V25.8712H30.5V26.8712ZM26.5 26.8712H25.5V25.8712H26.5V26.8712ZM15.5 22.8712V15.8712H22.5V22.8712H15.5ZM15.5 32.8712V25.8712H22.5V32.8712H15.5ZM25.5 22.8712V15.8712H32.5V22.8712H25.5Z" fill="#121212" stroke="#E8C95E"/>
</svg>
