<svg width="56" height="57" viewBox="0 0 56 57" fill="none" xmlns="http://www.w3.org/2000/svg">
<path d="M28 0.886963L47.799 9.08797L56 28.887L47.799 48.686L28 56.887L8.20101 48.686L0 28.887L8.20101 9.08797L28 0.886963Z" fill="#1A2837"/>
<path d="M37.3333 19.5536L18.6667 38.2203" stroke="#FFD43F" stroke-width="2" stroke-linecap="round" stroke-linejoin="round"/>
<path d="M20.6667 24.8869C22.5076 24.8869 24 23.3946 24 21.5536C24 19.7127 22.5076 18.2203 20.6667 18.2203C18.8257 18.2203 17.3333 19.7127 17.3333 21.5536C17.3333 23.3946 18.8257 24.8869 20.6667 24.8869Z" stroke="#FFD43F" stroke-width="2" stroke-linecap="round" stroke-linejoin="round"/>
<path d="M35.3333 39.5536C37.1743 39.5536 38.6667 38.0612 38.6667 36.2203C38.6667 34.3793 37.1743 32.887 35.3333 32.887C33.4924 32.887 32 34.3793 32 36.2203C32 38.0612 33.4924 39.5536 35.3333 39.5536Z" stroke="#FFD43F" stroke-width="2" stroke-linecap="round" stroke-linejoin="round"/>
</svg>
