<svg width="49" height="48" viewBox="0 0 49 48" fill="none" xmlns="http://www.w3.org/2000/svg">
<path d="M24.3326 34.6L16.9326 40.25C16.566 40.55 16.166 40.692 15.7326 40.676C15.2993 40.66 14.916 40.5347 14.5826 40.3C14.2493 40.0667 13.9913 39.75 13.8086 39.35C13.626 38.95 13.6173 38.5167 13.7826 38.05L16.6326 28.8L9.38265 23.65C8.98265 23.3834 8.73265 23.0334 8.63265 22.6C8.53265 22.1667 8.54931 21.7667 8.68265 21.4C8.81598 21.0334 9.04931 20.708 9.38265 20.424C9.71598 20.14 10.116 19.9987 10.5826 20H19.5326L22.4326 10.4C22.5993 9.93336 22.858 9.57469 23.2086 9.32402C23.5593 9.07336 23.934 8.94869 24.3326 8.95002C24.7326 8.95002 25.108 9.07536 25.4586 9.32602C25.8093 9.57669 26.0673 9.93469 26.2326 10.4L29.1326 20H38.0826C38.5493 20 38.9493 20.142 39.2826 20.426C39.616 20.71 39.8493 21.0347 39.9826 21.4C40.116 21.7667 40.1326 22.1667 40.0326 22.6C39.9326 23.0334 39.6826 23.3834 39.2826 23.65L32.0326 28.8L34.8826 38.05C35.0493 38.5167 35.0413 38.95 34.8586 39.35C34.676 39.75 34.4173 40.0667 34.0826 40.3C33.7493 40.5334 33.366 40.6587 32.9326 40.676C32.4993 40.6934 32.0993 40.5514 31.7326 40.25L24.3326 34.6Z" fill="#1A2837"/>
</svg>
