<svg width="56" height="57" viewBox="0 0 56 57" fill="none" xmlns="http://www.w3.org/2000/svg">
<path d="M28 0.886963L47.799 9.08797L56 28.887L47.799 48.686L28 56.887L8.20101 48.686L0 28.887L8.20101 9.08797L28 0.886963Z" fill="#1A2837"/>
<path d="M41.7678 19.1192C41.2989 18.6504 40.663 18.387 40 18.387H16C15.337 18.387 14.7011 18.6504 14.2322 19.1192C13.7634 19.588 13.5 20.2239 13.5 20.887V36.887C13.5 37.55 13.7634 38.1859 14.2322 38.6547C14.7011 39.1236 15.337 39.387 16 39.387H40C40.663 39.387 41.2989 39.1236 41.7678 38.6547C42.2366 38.1859 42.5 37.55 42.5 36.887V20.887C42.5 20.2239 42.2366 19.588 41.7678 19.1192ZM13.5251 18.4121C14.1815 17.7557 15.0717 17.387 16 17.387H40C40.9283 17.387 41.8185 17.7557 42.4749 18.4121C43.1313 19.0685 43.5 19.9587 43.5 20.887V36.887C43.5 37.8152 43.1313 38.7055 42.4749 39.3618C41.8185 40.0182 40.9283 40.387 40 40.387H16C15.0717 40.387 14.1815 40.0182 13.5251 39.3618C12.8687 38.7055 12.5 37.8152 12.5 36.887V20.887C12.5 19.9587 12.8687 19.0685 13.5251 18.4121Z" fill="black" stroke="#FFD43F"/>
<path d="M16.5 23.887C16.5 23.7544 16.5527 23.6272 16.6464 23.5334C16.7402 23.4396 16.8674 23.387 17 23.387H21C21.1326 23.387 21.2598 23.4396 21.3536 23.5334C21.4473 23.6272 21.5 23.7544 21.5 23.887V25.887C21.5 26.0196 21.4473 26.1467 21.3536 26.2405C21.2598 26.3343 21.1326 26.387 21 26.387H17C16.8674 26.387 16.7402 26.3343 16.6464 26.2405C16.5527 26.1467 16.5 26.0196 16.5 25.887V23.887ZM16.5 29.887C16.5 29.7544 16.5527 29.6272 16.6464 29.5334C16.7402 29.4396 16.8674 29.387 17 29.387H27C27.1326 29.387 27.2598 29.4396 27.3536 29.5334C27.4473 29.6272 27.5 29.7544 27.5 29.887C27.5 30.0196 27.4473 30.1467 27.3536 30.2405C27.2598 30.3343 27.1326 30.387 27 30.387H17C16.8674 30.387 16.7402 30.3343 16.6464 30.2405C16.5527 30.1467 16.5 30.0196 16.5 29.887ZM16.5 33.887C16.5 33.7544 16.5527 33.6272 16.6464 33.5334C16.7402 33.4396 16.8674 33.387 17 33.387H19C19.1326 33.387 19.2598 33.4396 19.3536 33.5334C19.4473 33.6272 19.5 33.7544 19.5 33.887C19.5 34.0196 19.4473 34.1467 19.3536 34.2405C19.2598 34.3343 19.1326 34.387 19 34.387H17C16.8674 34.387 16.7402 34.3343 16.6464 34.2405C16.5527 34.1467 16.5 34.0196 16.5 33.887ZM22.5 33.887C22.5 33.7544 22.5527 33.6272 22.6464 33.5334C22.7402 33.4396 22.8674 33.387 23 33.387H25C25.1326 33.387 25.2598 33.4396 25.3536 33.5334C25.4473 33.6272 25.5 33.7544 25.5 33.887C25.5 34.0196 25.4473 34.1467 25.3536 34.2405C25.2598 34.3343 25.1326 34.387 25 34.387H23C22.8674 34.387 22.7402 34.3343 22.6464 34.2405C22.5527 34.1467 22.5 34.0196 22.5 33.887ZM28.5 33.887C28.5 33.7544 28.5527 33.6272 28.6464 33.5334C28.7402 33.4396 28.8674 33.387 29 33.387H31C31.1326 33.387 31.2598 33.4396 31.3536 33.5334C31.4473 33.6272 31.5 33.7544 31.5 33.887C31.5 34.0196 31.4473 34.1467 31.3536 34.2405C31.2598 34.3343 31.1326 34.387 31 34.387H29C28.8674 34.387 28.7402 34.3343 28.6464 34.2405C28.5527 34.1467 28.5 34.0196 28.5 33.887ZM34.5 33.887C34.5 33.7544 34.5527 33.6272 34.6464 33.5334C34.7402 33.4396 34.8674 33.387 35 33.387H37C37.1326 33.387 37.2598 33.4396 37.3536 33.5334C37.4473 33.6272 37.5 33.7544 37.5 33.887C37.5 34.0196 37.4473 34.1467 37.3536 34.2405C37.2598 34.3343 37.1326 34.387 37 34.387H35C34.8674 34.387 34.7402 34.3343 34.6464 34.2405C34.5527 34.1467 34.5 34.0196 34.5 33.887Z" fill="black" stroke="#FFD43F"/>
</svg>
