<svg width="48" height="49" viewBox="0 0 48 49" fill="none" xmlns="http://www.w3.org/2000/svg">
<path d="M24 0.371216L40.9706 7.40065L48 24.3712L40.9706 41.3418L24 48.3712L7.02944 41.3418L0 24.3712L7.02944 7.40065L24 0.371216Z" fill="#1A2837"/>
<path d="M29 25.3712C29 25.769 28.842 26.1506 28.5607 26.4319C28.2794 26.7132 27.8978 26.8712 27.5 26.8712C27.1022 26.8712 26.7206 26.7132 26.4393 26.4319C26.158 26.1506 26 25.769 26 25.3712C26 24.9734 26.158 24.5919 26.4393 24.3106C26.7206 24.0293 27.1022 23.8712 27.5 23.8712C27.8978 23.8712 28.2794 24.0293 28.5607 24.3106C28.842 24.5919 29 24.9734 29 25.3712Z" fill="#E8C95E"/>
<path fill-rule="evenodd" clip-rule="evenodd" d="M16.813 18.0992L27.813 14.9562C28.1851 14.8499 28.5768 14.8313 28.9573 14.9021C29.3377 14.9729 29.6966 15.131 30.0055 15.3641C30.3145 15.5971 30.5651 15.8987 30.7377 16.2451C30.9102 16.5915 31 16.9732 31 17.3602V18.3712C31.5304 18.3712 32.0391 18.5819 32.4142 18.957C32.7893 19.3321 33 19.8408 33 20.3712V30.3712C33 30.9016 32.7893 31.4103 32.4142 31.7854C32.0391 32.1605 31.5304 32.3712 31 32.3712H17C16.4696 32.3712 15.9609 32.1605 15.5858 31.7854C15.2107 31.4103 15 30.9016 15 30.3712V20.3712C15 19.3262 15.835 18.3782 16.813 18.0992ZM28.363 16.8792C28.4373 16.858 28.5156 16.8544 28.5915 16.8685C28.6675 16.8827 28.7392 16.9142 28.8009 16.9607C28.8626 17.0073 28.9127 17.0674 28.9473 17.1366C28.9818 17.2057 28.9999 17.2819 29 17.3592V18.3712H23.14L28.363 16.8792ZM17 20.3712H31V30.3712H17V20.3712Z" fill="#E8C95E"/>
</svg>
