<svg width="20" height="20" viewBox="0 0 20 20" fill="none" xmlns="http://www.w3.org/2000/svg">
<path d="M14.168 10.8333C14.168 11.1648 14.0363 11.4828 13.8019 11.7172C13.5674 11.9516 13.2495 12.0833 12.918 12.0833C12.5864 12.0833 12.2685 11.9516 12.0341 11.7172C11.7997 11.4828 11.668 11.1648 11.668 10.8333C11.668 10.5018 11.7997 10.1839 12.0341 9.94944C12.2685 9.71502 12.5864 9.58333 12.918 9.58333C13.2495 9.58333 13.5674 9.71502 13.8019 9.94944C14.0363 10.1839 14.168 10.5018 14.168 10.8333Z" fill="#E8C95E"/>
<path fill-rule="evenodd" clip-rule="evenodd" d="M4.01083 4.77333L13.1775 2.15416C13.4876 2.06554 13.814 2.05012 14.131 2.1091C14.4481 2.16809 14.7471 2.29987 15.0046 2.49408C15.262 2.68828 15.4709 2.93961 15.6147 3.22826C15.7585 3.51691 15.8334 3.83501 15.8333 4.1575V5C16.2754 5 16.6993 5.17559 17.0118 5.48815C17.3244 5.80071 17.5 6.22464 17.5 6.66666V15C17.5 15.442 17.3244 15.8659 17.0118 16.1785C16.6993 16.4911 16.2754 16.6667 15.8333 16.6667H4.16667C3.72464 16.6667 3.30072 16.4911 2.98816 16.1785C2.67559 15.8659 2.5 15.442 2.5 15V6.66666C2.5 5.79583 3.19583 5.00583 4.01083 4.77333ZM13.6358 3.75666C13.6978 3.73902 13.763 3.73597 13.8263 3.74776C13.8896 3.75955 13.9493 3.78586 14.0008 3.82462C14.0522 3.86338 14.0939 3.91353 14.1227 3.97114C14.1515 4.02876 14.1666 4.09226 14.1667 4.15666V5H9.28333L13.6358 3.75666ZM4.16667 6.66666H15.8333V15H4.16667V6.66666Z" fill="#E8C95E"/>
</svg>
