<svg width="24" height="25" viewBox="0 0 24 25" fill="none" xmlns="http://www.w3.org/2000/svg">
<path d="M10 15.887L15.19 12.887L10 9.88696V15.887ZM21.56 8.05696C21.69 8.52696 21.78 9.15696 21.84 9.95696C21.91 10.757 21.94 11.447 21.94 12.047L22 12.887C22 15.077 21.84 16.687 21.56 17.717C21.31 18.617 20.73 19.197 19.83 19.447C19.36 19.577 18.5 19.667 17.18 19.727C15.88 19.797 14.69 19.827 13.59 19.827L12 19.887C7.81 19.887 5.2 19.727 4.17 19.447C3.27 19.197 2.69 18.617 2.44 17.717C2.31 17.247 2.22 16.617 2.16 15.817C2.09 15.017 2.06 14.327 2.06 13.727L2 12.887C2 10.697 2.16 9.08696 2.44 8.05696C2.69 7.15696 3.27 6.57696 4.17 6.32696C4.64 6.19696 5.5 6.10696 6.82 6.04696C8.12 5.97696 9.31 5.94696 10.41 5.94696L12 5.88696C16.19 5.88696 18.8 6.04696 19.83 6.32696C20.73 6.57696 21.31 7.15696 21.56 8.05696Z" fill="#E8C95E"/>
</svg>
